<svg xmlns="http://www.w3.org/2000/svg" xmlns:xlink="http://www.w3.org/1999/xlink" width="38.4" height="38.695" viewBox="0 0 38.4 38.695"><defs><clipPath id="a"><circle cx="19.2" cy="19.2" r="19.2" transform="translate(1691.508 57.168)" fill="none"/></clipPath></defs><g transform="translate(-1691.439 -68)"><circle cx="19.2" cy="19.2" r="19.2" transform="translate(1691.439 68.295)" fill="#fbb03b"/><g transform="translate(-0.068 10.832)"><g clip-path="url(#a)"><path d="M1719.323,72.234a8.777,8.777,0,1,1-8.777-8.75A8.778,8.778,0,0,1,1719.323,72.234Z" fill="#efdcbd"/><path d="M1727,94.184a1.277,1.277,0,0,1-1.158,1.384h-30.476a1.277,1.277,0,0,1-1.158-1.384c0-7.28,4.954-13.173,11.012-13.173h10.768C1722.069,81.011,1727,86.937,1727,94.184Z" fill="#efdcbd"/></g></g></g></svg>